<?xml version="1.0" encoding="utf-8"?>
<!-- Generator: Adobe Illustrator 23.0.1, SVG Export Plug-In . SVG Version: 6.00 Build 0)  -->
<svg version="1.1" id="Capa_1" xmlns="http://www.w3.org/2000/svg" xmlns:xlink="http://www.w3.org/1999/xlink" x="0px" y="0px"
	 viewBox="0 0 512 512" style="enable-background:new 0 0 512 512;" xml:space="preserve">
<style type="text/css">
	.st0{fill:#0076BE;}
</style>
<g>
	<g>
		<g>
			<path class="st0" d="M409.6,0c-4.7,0-8.5,3.8-8.5,8.5v17.1H384V8.5c0-4.7-3.8-8.5-8.5-8.5s-8.5,3.8-8.5,8.5v17.1h-17.1V8.5
				c0-4.7-3.8-8.5-8.5-8.5s-8.5,3.8-8.5,8.5v17.1h-17.1V8.5c0-4.7-3.8-8.5-8.5-8.5s-8.5,3.8-8.5,8.5v17.1h-17.1V8.5
				c0-4.7-3.8-8.5-8.5-8.5s-8.5,3.8-8.5,8.5v17.1h-17.1V8.5c0-4.7-3.8-8.5-8.5-8.5s-8.5,3.8-8.5,8.5v17.1h-17.1V8.5
				c0-4.7-3.8-8.5-8.5-8.5s-8.5,3.8-8.5,8.5v17.1h-17.1V8.5c0-4.7-3.8-8.5-8.5-8.5s-8.5,3.8-8.5,8.5v17.1h-17.1V8.5
				c0-4.7-3.8-8.5-8.5-8.5S128,3.8,128,8.5v17.1h-17.1V8.5c0-4.7-3.8-8.5-8.5-8.5s-8.5,3.8-8.5,8.5v25.6v443.7v25.6
				c0,4.7,3.8,8.5,8.5,8.5s8.5-3.8,8.5-8.5v-17.1H128v17.1c0,4.7,3.8,8.5,8.5,8.5s8.5-3.8,8.5-8.5v-17.1h17.1v17.1
				c0,4.7,3.8,8.5,8.5,8.5s8.5-3.8,8.5-8.5v-17.1h17.1v17.1c0,4.7,3.8,8.5,8.5,8.5s8.5-3.8,8.5-8.5v-17.1h17.1v17.1
				c0,4.7,3.8,8.5,8.5,8.5s8.5-3.8,8.5-8.5v-17.1h17.1v17.1c0,4.7,3.8,8.5,8.5,8.5s8.5-3.8,8.5-8.5v-17.1h17.1v17.1
				c0,4.7,3.8,8.5,8.5,8.5s8.5-3.8,8.5-8.5v-17.1h17.1v17.1c0,4.7,3.8,8.5,8.5,8.5s8.5-3.8,8.5-8.5v-17.1h17.1v17.1
				c0,4.7,3.8,8.5,8.5,8.5s8.5-3.8,8.5-8.5v-17.1h17.1v17.1c0,4.7,3.8,8.5,8.5,8.5s8.5-3.8,8.5-8.5v-25.6V34.1V8.5
				C418.1,3.8,414.3,0,409.6,0z M384,443.7c0,4.7-3.8,8.5-8.5,8.5H136.5c-4.7,0-8.5-3.8-8.5-8.5V68.3c0-4.7,3.8-8.5,8.5-8.5h238.9
				c4.7,0,8.5,3.8,8.5,8.5L384,443.7L384,443.7z"/>
			<polygon class="st0" points="323.1,256 256,129.2 188.9,256 256,382.8 			"/>
			<path class="st0" d="M145.1,435.2h221.9V76.8H145.1V435.2z M171.7,252l76.8-145.1c3-5.6,12.1-5.6,15.1,0L340.3,252
				c1.3,2.5,1.3,5.5,0,8l-76.8,145.1c-1.5,2.8-4.4,4.5-7.5,4.5c-3.2,0-6.1-1.7-7.5-4.5L171.7,260C170.3,257.5,170.3,254.5,171.7,252
				z"/>
		</g>
	</g>
</g>
</svg>
