<?xml version="1.0" encoding="utf-8"?>
<!-- Generator: Adobe Illustrator 23.0.1, SVG Export Plug-In . SVG Version: 6.00 Build 0)  -->
<svg version="1.1" id="bold" xmlns="http://www.w3.org/2000/svg" xmlns:xlink="http://www.w3.org/1999/xlink" x="0px" y="0px"
	 viewBox="0 0 512 512" style="enable-background:new 0 0 512 512;" xml:space="preserve">
<style type="text/css">
	.st0{fill:#0076BE;}
</style>
<path class="st0" d="M405.3,416V309.3c0-35.3,28.7-64,64-64c11.8,0,21.3,9.6,21.3,21.3c0,11.9-9.7,21.5-21.6,21.3
	c-11.7-0.1-21.1,9.6-21.1,21.3v64C448,396.9,428.9,416,405.3,416z"/>
<path class="st0" d="M106.7,416V309.3c0-35.3-28.7-64-64-64c-11.8,0-21.3,9.6-21.3,21.3c0,11.9,9.7,21.5,21.6,21.3
	c11.7-0.1,21.1,9.6,21.1,21.3v64C64,396.9,83.1,416,106.7,416z"/>
<path class="st0" d="M346.7,512H165.3c-11.8,0-21.3-9.6-21.3-21.3s9.6-21.3,21.3-21.3h181.3c11.8,0,21.3,9.6,21.3,21.3
	S358.4,512,346.7,512z"/>
<path class="st0" d="M256,512c-11.8,0-21.3-9.6-21.3-21.3V400c0-11.8,9.6-21.3,21.3-21.3s21.3,9.6,21.3,21.3v90.7
	C277.3,502.4,267.8,512,256,512z"/>
<path class="st0" d="M364,277.3H148c-11.1,0-21.5-4.9-28.6-13.3c-7.1-8.4-10.1-19.5-8.2-30.4l35.2-202.7C149.6,13,165.1,0,183.3,0
	h145.4c18.2,0,33.7,13,36.8,31l35.2,202.7c1.9,10.9-1.1,22-8.2,30.4C385.4,272.5,375,277.3,364,277.3z"/>
<path class="st0" d="M410.7,416H101.3c-8.8,0-16-7.2-16-16v-42.7c0-32.4,26.3-58.7,58.7-58.7h224c32.4,0,58.7,26.3,58.7,58.7V400
	C426.7,408.8,419.5,416,410.7,416z"/>
</svg>
