<svg height="512pt" viewBox="0 0 512 512.00025" width="512pt" xmlns="http://www.w3.org/2000/svg" xmlns:xlink="http://www.w3.org/1999/xlink"><linearGradient id="linear0" gradientUnits="userSpaceOnUse" x1="0" x2="512" y1="256.009" y2="256.009"><stop offset="0" stop-color="#00f2fe"/><stop offset=".0208" stop-color="#03effe"/><stop offset=".2931" stop-color="#24d2fe"/><stop offset=".5538" stop-color="#3cbdfe"/><stop offset=".7956" stop-color="#4ab0fe"/><stop offset="1" stop-color="#4facfe"/></linearGradient><path d="m506.125 477.839844-471.984375-471.980469c-7.8125-7.8125-20.472656-7.8125-28.28125 0-7.8125 7.808594-7.8125 20.472656 0 28.28125l119.296875 119.296875c-45.171875 66.792969-67.175781 117.453125-67.175781 154.628906v5.464844c0 109.4375 88.820312 198.46875 197.992187 198.46875 34.191406 0 67.90625-8.882812 97.492188-25.691406 21.660156-12.304688 40.871094-28.6875 56.507812-48.050782l67.867188 67.867188c3.90625 3.90625 9.023437 5.859375 14.144531 5.859375 5.117187 0 10.234375-1.953125 14.140625-5.859375 7.808594-7.808594 7.808594-20.472656 0-28.285156zm-250.152344-5.839844c-87.117187 0-157.992187-71.085938-157.992187-158.46875v-5.464844c0-19.292968 10.050781-56.523437 56.003906-125.800781l227.523437 227.523437c-29.820312 39.210938-75.730468 62.210938-125.535156 62.210938zm-71.554687-398.480469c31.167969-38.941406 55.769531-65.875 56.800781-67.003906 3.789062-4.140625 9.144531-6.4960938 14.753906-6.4960938s10.964844 2.3554688 14.753906 6.4960938c1.84375 2.015625 45.722657 50.09375 90.335938 110.5625 61.644531 83.558594 92.902344 147.816406 92.902344 190.988281v5.46875c0 4.230469-.136719 8.515625-.402344 12.734375-.667969 10.59375-9.472656 18.738281-19.9375 18.738281-.425781 0-.851562-.015624-1.28125-.042968-11.023438-.695313-19.394531-10.195313-18.699219-21.21875.214844-3.382813.320313-6.816406.320313-10.210938v-5.46875c0-33.472656-30.21875-92.867187-85.089844-167.242187-28.066406-38.042969-56.332031-71.582031-72.902344-90.648438-10.054687 11.5625-24.398437 28.4375-40.332031 48.335938-6.902344 8.625-19.488281 10.019531-28.109375 3.117187s-10.015625-19.488281-3.113281-28.109375zm0 0" fill="url(#linear0)"/></svg>