<?xml version="1.0" encoding="utf-8"?>
<!-- Generator: Adobe Illustrator 23.0.1, SVG Export Plug-In . SVG Version: 6.00 Build 0)  -->
<svg version="1.1" id="Camada_1" xmlns="http://www.w3.org/2000/svg" xmlns:xlink="http://www.w3.org/1999/xlink" x="0px" y="0px"
	 viewBox="0 0 512 512" style="enable-background:new 0 0 512 512;" xml:space="preserve">
<style type="text/css">
	.st0{fill:#0076BE;}
</style>
<g id="Page-1">
	<g>
		<path id="Shape" class="st0" d="M82.3,467.7c0,3.1-1.5,5.9-4.1,7.6l-17.3,11.5c-3,2-5.1,5.2-5.8,8.7s0,7.3,2,10.3
			c4.3,6.2,12.8,7.9,19.1,3.7l27.3-18.2c3.8-2.5,6.1-6.8,6.1-11.4v-21.8c-9.3-0.8-18.4-2.4-27.4-4.9V467.7z"/>
		<path class="st0" d="M451,486.9l-17.3-11.5c-2.5-1.7-4.1-4.6-4.1-7.6v-14.4c-9,2.4-18.2,4-27.4,4.9V480c0,4.6,2.3,8.9,6.1,11.4
			l27.4,18.3c6.3,4,14.7,2.3,19-3.8c2-3,2.8-6.7,2.1-10.3S454.1,488.9,451,486.9L451,486.9z"/>
		<path class="st0" d="M104.7,261.6c3.6,4.5,6.6,9.4,8.9,14.7c57.5-29.1,138.8-29.4,142.4-29.4s84.8,0.4,142.3,29.4
			c2.3-5.3,5.3-10.2,9-14.7c-5.6-20.3-9.1-56.7,15.2-101.3c18.9-34.5,21.6-72.7,7-97.3c-10.9-17.6-30.7-27.7-51.4-26.3
			c-26.8,1-53.3-6.6-75.5-21.6c-27.8-20-65.3-20-93.2,0c-22.3,15-48.8,22.6-75.6,21.6c-20.7-1.4-40.4,8.7-51.4,26.3
			c-14.6,24.6-11.8,62.8,7,97.3C113.9,204.9,110.3,241.3,104.7,261.6z M146.3,118.9c-5,0-9.1-4.1-9.1-9.1c0-5,4.1-9.1,9.1-9.1
			s9.1,4.1,9.1,9.1C155.4,114.8,151.3,118.9,146.3,118.9z M182.9,164.6c-5,0-9.1-4.1-9.1-9.1s4.1-9.1,9.1-9.1s9.1,4.1,9.1,9.1
			S187.9,164.6,182.9,164.6z M219.4,210.3c-5,0-9.1-4.1-9.1-9.1s4.1-9.1,9.1-9.1s9.1,4.1,9.1,9.1S224.5,210.3,219.4,210.3z
			 M219.4,118.9c-5,0-9.1-4.1-9.1-9.1c0-5,4.1-9.1,9.1-9.1s9.1,4.1,9.1,9.1C228.6,114.8,224.5,118.9,219.4,118.9z M256,164.6
			c-5,0-9.1-4.1-9.1-9.1s4.1-9.1,9.1-9.1c5,0,9.1,4.1,9.1,9.1S261,164.6,256,164.6z M292.6,210.3c-5,0-9.1-4.1-9.1-9.1
			s4.1-9.1,9.1-9.1c5,0,9.1,4.1,9.1,9.1S297.6,210.3,292.6,210.3z M292.6,118.9c-5,0-9.1-4.1-9.1-9.1c0-5,4.1-9.1,9.1-9.1
			c5,0,9.1,4.1,9.1,9.1C301.7,114.8,297.6,118.9,292.6,118.9z M329.1,164.6c-5,0-9.1-4.1-9.1-9.1s4.1-9.1,9.1-9.1
			c5,0,9.1,4.1,9.1,9.1S334.2,164.6,329.1,164.6z M356.6,109.7c0-5,4.1-9.1,9.1-9.1c5,0,9.1,4.1,9.1,9.1c0,5-4.1,9.1-9.1,9.1
			C360.7,118.9,356.6,114.8,356.6,109.7z M98.2,72.2c7.6-12.1,21.4-18.8,35.7-17.4c30.2,0.9,59.9-7.5,85-24.2
			c22-16.5,52.2-16.5,74.2,0c25.2,16.7,54.9,25.1,85,24.2c14.2-1.4,28,5.3,35.7,17.4c8.6,14.5,11.9,44-7.3,79.1
			c-15,26.1-22.4,55.9-21.4,85.9c0.1,2.4-0.7,4.8-2.4,6.6c-1.6,1.8-3.9,2.9-6.3,3H376c-4.9,0-8.9-3.8-9.1-8.7
			c-1.2-33.4,7-66.5,23.6-95.6c14.4-26.5,14.1-50.2,7.7-61.1c-1.6-2.7-4.9-8.4-19.9-8.4c-33.5,0.9-66.5-8.4-94.5-26.8
			c-16.1-13-39.1-13-55.2,0c-28,18.4-61,27.8-94.5,26.8c-15,0-18.3,5.7-19.9,8.4c-6.4,10.9-6.8,34.6,7.7,61.1
			c16.6,29,24.8,62.2,23.6,95.6c-0.3,5-4.6,8.9-9.6,8.7c-2.4-0.1-4.7-1.2-6.3-3c-1.6-1.8-2.5-4.2-2.4-6.6c1-30.1-6.4-59.8-21.4-85.9
			C86.3,116.2,89.6,86.8,98.2,72.2L98.2,72.2z"/>
		<path class="st0" d="M256,356.6h141.9c-4.1-18.2-5.7-36.9-4.7-55.5c0-2.2,0.1-4.4,0.4-6.6C340,265.6,256.9,265.1,256,265.1
			c-0.9,0-84,0.5-137.6,29.3c0.3,2.4,0.4,4.8,0.4,7.2c1,18.4-0.6,36.9-4.7,54.9L256,356.6z"/>
		<circle id="Oval" class="st0" cx="54.9" cy="301.7" r="9.1"/>
		<circle class="st0" cx="457.1" cy="301.7" r="9.1"/>
		<path class="st0" d="M457.1,256c-25.2,0-45.7,20.5-45.7,45.7c-2.2,30.5,6,60.7,13.9,90.2c0.9,3.2,0,6.6-2.3,8.9
			c-2.3,2.3-5.7,3.2-8.9,2.4c-3.2-0.9-5.6-3.4-6.4-6.6c-1.7-6.3-3.6-13.4-5.6-21.7H110c-2.1,8.4-4.1,15.9-5.6,21.7
			c-0.8,3.2-3.3,5.7-6.4,6.6c-3.2,0.9-6.6,0-8.9-2.4c-2.3-2.3-3.2-5.7-2.3-8.9c7.7-29,16.1-59.5,13.9-89.5
			c0.2-19.9-12.5-37.7-31.4-43.9c-18.9-6.2-39.7,0.5-51.4,16.6c-11.7,16.1-11.6,38,0.2,54c11.8,16,32.7,22.5,51.5,16.1
			c4.8-1.5,9.9,1.2,11.4,6c1.5,4.8-1.2,9.9-6,11.4c-4.2,1.3-8.5,2.1-12.9,2.6c-5.1,12-7.6,25-7.1,38c0.2,6.8,2.6,13.3,6.9,18.7
			c4.4,4.5,9.7,8,15.5,10.4C105.3,444.5,225.5,448,256,448s150.5-3.4,178.5-15.7c5.8-2.4,11.1-5.9,15.5-10.4
			c4.2-5.4,6.7-11.9,6.9-18.8c0.4-13-2-26-7.1-37.9c-4.4-0.4-8.7-1.3-12.9-2.6c-3.1-1-5.5-3.5-6.2-6.7s0.3-6.5,2.7-8.7
			c2.4-2.2,5.8-3,8.9-2c14.2,4.6,29.8,2.2,41.8-6.6c15.9-11.7,22.5-32.3,16.3-51.1C494.4,268.7,476.9,256,457.1,256L457.1,256z
			 M54.9,329.1c-15.1,0-27.4-12.3-27.4-27.4s12.3-27.4,27.4-27.4s27.4,12.3,27.4,27.4S70,329.1,54.9,329.1z M146.3,420.6
			c-5,0-9.1-4.1-9.1-9.1s4.1-9.1,9.1-9.1s9.1,4.1,9.1,9.1S151.3,420.6,146.3,420.6z M219.4,420.6c-5,0-9.1-4.1-9.1-9.1
			s4.1-9.1,9.1-9.1s9.1,4.1,9.1,9.1S224.5,420.6,219.4,420.6z M292.6,420.6c-5,0-9.1-4.1-9.1-9.1s4.1-9.1,9.1-9.1
			c5,0,9.1,4.1,9.1,9.1S297.6,420.6,292.6,420.6z M365.7,420.6c-5,0-9.1-4.1-9.1-9.1s4.1-9.1,9.1-9.1c5,0,9.1,4.1,9.1,9.1
			S370.8,420.6,365.7,420.6z M457.1,329.1c-15.1,0-27.4-12.3-27.4-27.4s12.3-27.4,27.4-27.4c15.1,0,27.4,12.3,27.4,27.4
			S472.3,329.1,457.1,329.1z"/>
	</g>
</g>
</svg>
