<?xml version="1.0" encoding="utf-8"?>
<!-- Generator: Adobe Illustrator 23.0.1, SVG Export Plug-In . SVG Version: 6.00 Build 0)  -->
<svg version="1.1" id="Capa_1" xmlns="http://www.w3.org/2000/svg" xmlns:xlink="http://www.w3.org/1999/xlink" x="0px" y="0px"
	 viewBox="0 0 194.3 194.3" style="enable-background:new 0 0 194.3 194.3;" xml:space="preserve">
<style type="text/css">
	.st0{fill:#0076BE;}
</style>
<path class="st0" d="M193.2,114.3l-21.6-39.2h0.2V38.7c0-7.4-6-13.5-13.5-13.5H35.9c-7.4,0-13.5,6-13.5,13.5v36.3h0.2L1.1,114.3
	H193.2z M49.7,62.1c0-4.4,3.5-7.9,7.9-7.9h77.6c5.1,0,9.3,4.2,9.3,9.3v1.7c0,5.1-4.2,9.3-9.3,9.3H59.1c-5.1,0-9.3-4.2-9.3-9.3V62.1z
	 M31.8,75.1h13.1c3.1,4.5,8.3,7.4,14.2,7.4h76.2c5.9,0,11-2.9,14.2-7.4h13.1l17.2,31.2H14.6L31.8,75.1z M194.3,120.7v36.8
	c0,6.4-5.2,11.6-11.6,11.6H11.6C5.2,169,0,163.8,0,157.4v-36.8L194.3,120.7L194.3,120.7z"/>
</svg>
