<?xml version="1.0" encoding="utf-8"?>
<!-- Generator: Adobe Illustrator 23.0.1, SVG Export Plug-In . SVG Version: 6.00 Build 0)  -->
<svg version="1.1" id="Layer_1" xmlns="http://www.w3.org/2000/svg" xmlns:xlink="http://www.w3.org/1999/xlink" x="0px" y="0px"
	 viewBox="0 0 512 512" style="enable-background:new 0 0 512 512;" xml:space="preserve">
<style type="text/css">
	.st0{fill:#0076BE;}
</style>
<g>
	<g>
		<g>
			<path class="st0" d="M106.7,213.3v53.3h298.7v-53.3c0-29.4,23.9-53.3,53.3-53.3h10.7v-32c0-17.6-14.4-32-32-32H74.7
				c-17.6,0-32,14.4-32,32v32h10.7C82.8,160,106.7,183.9,106.7,213.3z"/>
			<path class="st0" d="M480,181.3h-21.3c-17.6,0-32,14.4-32,32v64c0,5.9-4.8,10.7-10.7,10.7H96c-5.9,0-10.7-4.8-10.7-10.7v-64
				c0-17.6-14.4-32-32-32H32c-17.6,0-32,14.4-32,32v128c0,17.6,14.4,32,32,32h10.7v32c0,5.9,4.8,10.7,10.7,10.7h64
				c5.9,0,10.7-4.8,10.7-10.7v-32h256v32c0,5.9,4.8,10.7,10.7,10.7h64c5.9,0,10.7-4.8,10.7-10.7v-32H480c17.6,0,32-14.4,32-32v-128
				C512,195.7,497.6,181.3,480,181.3z"/>
		</g>
	</g>
</g>
</svg>
