<svg id="Capa_1" enable-background="new 0 0 512 512" height="512" viewBox="0 0 512 512" width="512" xmlns="http://www.w3.org/2000/svg"><g><path d="m278.5 158.5h-45v75h-75v45h75v75h45v-75h75v-45h-75z"/><path d="m256 0c-141.385 0-256 114.615-256 256s114.615 256 256 256 256-114.615 256-256-114.615-256-256-256zm159.806 415.806c-42.685 42.686-99.439 66.194-159.806 66.194s-117.121-23.508-159.806-66.194-66.194-99.439-66.194-159.806 23.508-117.121 66.194-159.806 99.439-66.194 159.806-66.194 117.121 23.508 159.806 66.194 66.194 99.439 66.194 159.806-23.508 117.121-66.194 159.806z"/><path d="m256 60c-108.075 0-196 87.925-196 196s87.925 196 196 196 196-87.925 196-196-87.925-196-196-196zm127.5 248.5h-75v75h-105v-75h-75v-105h75v-75h105v75h75z"/></g></svg>