<svg id="Capa_1" enable-background="new 0 0 512.008 512.008" height="512" viewBox="0 0 512.008 512.008" width="512" xmlns="http://www.w3.org/2000/svg"><g><path d="m91.004 209.49v287.518c0 8.291 6.709 15 15 15s15-6.709 15-15v-287.518c34.191-6.969 60-37.266 60-73.482v-121c0-8.291-6.709-15-15-15s-15 6.709-15 15v106h-30v-106c0-8.291-6.709-15-15-15s-15 6.709-15 15v106h-30v-106c0-8.291-6.709-15-15-15s-15 6.709-15 15v121c0 36.217 25.809 66.513 60 73.482z"/><path d="m271.004 299.49v197.518c0 8.291 6.709 15 15 15s15-6.709 15-15v-482c0-5.2-2.695-10.02-7.119-12.759-4.424-2.769-9.961-2.974-14.59-.659-42.129 21.064-68.291 64.398-68.291 111.493v112.925c0 36.217 25.809 66.513 60 73.482z"/><path d="m391.004 208.952v288.056c0 8.291 6.709 15 15 15s15-6.709 15-15v-288.056c34.625-9.481 60-51.288 60-102.944 0-58.872-32.944-106-75-106s-75 47.128-75 106c0 51.656 25.375 93.463 60 102.944z"/></g></svg>