<?xml version="1.0" encoding="utf-8"?>
<!-- Generator: Adobe Illustrator 23.0.1, SVG Export Plug-In . SVG Version: 6.00 Build 0)  -->
<svg version="1.1" id="Camada_1" xmlns="http://www.w3.org/2000/svg" xmlns:xlink="http://www.w3.org/1999/xlink" x="0px" y="0px"
	 viewBox="0 0 50 50" style="enable-background:new 0 0 50 50;" xml:space="preserve">
<style type="text/css">
	.st0{clip-path:url(#SVGID_2_);}
	.st1{fill:#0076BE;}
	.st2{fill:#FCFCFC;}
</style>
<g>
	<g>
		<g>
			<g>
				<defs>
					<path id="SVGID_1_" d="M50,25C50,38.8,38.9,50,25.1,50C11.3,50,0.2,38.8,0.2,25c0-13.8,11.2-24.9,24.9-24.9
						C38.9,0.1,50,11.2,50,25z"/>
				</defs>
				<clipPath id="SVGID_2_">
					<use xlink:href="#SVGID_1_"  style="overflow:visible;"/>
				</clipPath>
				<g class="st0">
					<rect class="st1" width="50" height="50"/>
				</g>
			</g>
		</g>
	</g>
	<path class="st2" d="M35,11.6c-6.6,0-13.2,0-19.8,0c-2.4,0-3.6,1.2-3.6,3.6c0,3.3,0,6.5,0,9.9c0,3.3,0,6.6,0,9.9
		c0,2.3,1.3,3.5,3.5,3.5c6.7,0,13.3,0,19.9,0c2.3,0,3.6-1.3,3.6-3.6c0-6.6,0-13.2,0-19.8C38.6,12.8,37.3,11.6,35,11.6z M32.8,14.6
		c2.7,0,2.7,0,2.7,2.7c0,2.6,0,2.6-2.6,2.6c-2.6,0-2.6,0-2.6-2.6C30.2,14.6,30.2,14.6,32.8,14.6z M25.1,19.8c2.8,0,5.2,2.4,5.2,5.2
		c0,2.9-2.4,5.3-5.3,5.2c-2.8-0.1-5.2-2.5-5.2-5.3C19.9,22.1,22.3,19.8,25.1,19.8z M35.5,33.8c0,1.3-0.4,1.6-1.6,1.6
		c-2.9,0-5.9,0-8.8,0c-2.9,0-5.9,0-8.8,0c-1.2,0-1.6-0.4-1.6-1.6c0-3.2,0-6.5,0-9.8c0-0.9,0.3-1.1,1.1-1.1c1.2,0.1,1.3,0,1.1,1.2
		c-0.5,4.2,2.4,8.2,6.5,9c4.2,0.8,8.5-1.7,9.6-5.8c0.4-1.3,0.5-2.6,0.2-3.9c-0.1-0.5,0-0.6,0.4-0.6c1.9-0.1,1.9-0.2,1.9,1.7
		C35.5,27.7,35.5,30.8,35.5,33.8z"/>
</g>
</svg>
