<?xml version="1.0" encoding="utf-8"?>
<!-- Generator: Adobe Illustrator 23.0.1, SVG Export Plug-In . SVG Version: 6.00 Build 0)  -->
<svg version="1.1" id="Camada_1" xmlns="http://www.w3.org/2000/svg" xmlns:xlink="http://www.w3.org/1999/xlink" x="0px" y="0px"
	 viewBox="0 0 50 50" style="enable-background:new 0 0 50 50;" xml:space="preserve">
<style type="text/css">
	.st0{fill:#0076BE;}
	.st1{fill:#FFFFFF;}
</style>
<g>
	<path class="st0" d="M50.2,25.2c0,13.1-10.1,23.9-22.9,24.9c-0.7,0.1-1.4,0.1-2.1,0.1c-1.9,0-3.7-0.2-5.4-0.6
		C8.6,47.1,0.2,37.1,0.2,25.2c0-13.8,11.2-25,25.1-25C39,0.2,50.2,11.3,50.2,25.2z"/>
	<g>
		<path class="st1" d="M28.1,19.9c0.4-0.5,1.2-0.8,2.3-0.8c1,0,2.3,0.1,3.4,0.5l1-5.3c-2-0.7-4.1-0.9-6.2-0.9s-3.8,0.3-5.2,1.1
			c-1.4,0.8-2.3,1.6-2.8,2.8c-0.5,1.1-0.8,3-0.8,5.3v2.1h-4.1v6h4.1v18.9c1.7,0.4,3.6,0.6,5.4,0.6c0.7,0,1.4,0,2.1-0.1V30.8h5.5v-6
			h-5.5v-1.9C27.4,21.3,27.6,20.4,28.1,19.9z"/>
	</g>
</g>
</svg>
