<?xml version="1.0" encoding="utf-8"?>
<!-- Generator: Adobe Illustrator 23.0.1, SVG Export Plug-In . SVG Version: 6.00 Build 0)  -->
<svg version="1.1" id="Camada_1" xmlns="http://www.w3.org/2000/svg" xmlns:xlink="http://www.w3.org/1999/xlink" x="0px" y="0px"
	 viewBox="0 0 908.3 302" style="enable-background:new 0 0 908.3 302;" xml:space="preserve">
<style type="text/css">
	.st0{fill:#0076BE;}
	.st1{fill:#2B9E00;}
	.st2{fill:url(#SVGID_1_);}
	.st3{fill:#FFFFFF;}
</style>
<polygon class="st0" points="0.8,157.6 37.7,119.8 37.7,77.3 53.7,77.3 53.7,104.9 156.2,0 309.4,157.6 287.6,157.6 155.1,22.1 
	24.4,157.6 "/>
<rect x="120.9" y="77.3" class="st0" width="32.9" height="32.9"/>
<rect x="160.3" y="77.3" class="st0" width="32.9" height="32.9"/>
<rect x="120.9" y="117.1" class="st0" width="32.9" height="32.9"/>
<rect x="160.3" y="117.1" class="st0" width="32.9" height="32.9"/>
<path class="st1" d="M0.8,167.7c0,0,18.1,17.2,42.7,18.3s36.3,0.1,49.8-5s74-32.2,125.5,17.6c0,0,1.4,1.6,2.6,2
	c0,0-34.8,37-130.5,24c0,0,39.3,27.3,99.1,25s106.5-59.7,117.8-86.3c0,0-6.2,138.6-150.5,138.6C17.9,302,0.8,167.7,0.8,167.7z"/>
<linearGradient id="SVGID_1_" gradientUnits="userSpaceOnUse" x1="155.0745" y1="167.1989" x2="155.0745" y2="265.5692">
	<stop  offset="0" style="stop-color:#FFFFFF;stop-opacity:0"/>
	<stop  offset="0.8591" style="stop-color:#FFFFFF;stop-opacity:0.3436"/>
	<stop  offset="1" style="stop-color:#FFFFFF;stop-opacity:0.4"/>
</linearGradient>
<path class="st2" d="M6.9,170.4c0,0,17.5,16.6,41.2,17.7s35.1,0.1,48.1-4.8s71.4-31.1,121.2,17c0,0,1.3,1.6,2.5,2
	c0,0-33.6,35.7-126,23.2c0,0,38,26.4,95.7,24.2c57.7-2.2,102.8-57.7,113.8-83.3c0,0-6,133.9-145.3,133.9
	C23.3,300.1,6.9,170.4,6.9,170.4z"/>
<g>
	<path class="st3" d="M388.8,138.6c0-2.4-0.3-4.6-0.8-6.8c-0.6-2.2-1.5-4.1-2.7-5.8c-1.3-1.7-2.9-3-4.9-4s-4.4-1.5-7.3-1.5
		c-5.7,0-10,2.5-13,7.6c-3,5.1-4.4,12.4-4.4,21.9c0,9.4,1.6,16.6,4.8,21.6c3.2,5,7.9,7.5,14.1,7.5c6.2,0,12.7-2.8,19.4-8.3
		c3,2,5,4.5,5.9,7.6c-1.6,1.6-3.5,3.1-5.6,4.4c-2.1,1.3-4.3,2.5-6.7,3.5c-2.3,1-4.7,1.8-7.2,2.3c-2.5,0.6-4.9,0.8-7.3,0.8
		c-5.7,0-10.5-1.1-14.3-3.3c-3.8-2.2-6.9-5.1-9-8.6c-2.2-3.6-3.8-7.7-4.9-12.4c-1.1-4.7-1.6-9.5-1.6-14.6c0-6.6,0.8-12.4,2.3-17.4
		c1.6-4.9,3.7-9.1,6.4-12.4c2.7-3.3,5.9-5.8,9.5-7.4c3.6-1.7,7.5-2.5,11.5-2.5c4.2,0,8,0.6,11.4,1.8c3.4,1.2,6.2,2.8,8.6,4.8
		c2.4,2,4.2,4.3,5.5,6.9c1.3,2.6,1.9,5.3,1.9,8.2c0,4.4-2.2,6.6-6.7,6.6C392.3,139.3,390.7,139.1,388.8,138.6z"/>
	<path class="st3" d="M428.8,179.5h4.1c0.7,1.9,1,3.5,1,4.9c0,1.4-0.1,2.5-0.3,3.4c-3,0.5-6.1,0.8-9.4,0.8c-7.3,0-11-3.8-11-11.4
		v-69.8l0.8-0.7h4.3c2.3,0,3.9,0.6,4.8,1.7c0.9,1.1,1.4,3,1.4,5.6v60.5C424.5,177.9,425.9,179.5,428.8,179.5z"/>
	<path class="st3" d="M485.5,164.5h-32.6c0.2,5.1,1.3,9,3.3,11.7c2,2.7,5.3,4.1,9.9,4.1c2.2,0,4.6-0.3,7.1-1
		c2.5-0.7,5.2-1.7,7.9-3.2c1.8,1.7,3.1,4.1,3.7,7.3c-5.9,4.1-12.9,6.2-20.8,6.2c-4.2,0-7.8-0.7-10.6-2.2c-2.9-1.5-5.2-3.5-7-6.1
		c-1.8-2.6-3.1-5.7-3.9-9.3c-0.8-3.6-1.2-7.4-1.2-11.6c0-4.1,0.5-7.9,1.6-11.4c1-3.5,2.5-6.5,4.4-9c1.9-2.5,4.3-4.5,7.1-5.9
		c2.8-1.4,6-2.2,9.6-2.2s6.7,0.6,9.5,1.8c2.8,1.2,5.1,2.8,7,4.9c1.9,2.1,3.4,4.6,4.4,7.5c1,2.9,1.5,6.1,1.5,9.5
		c0,1.5-0.1,2.9-0.2,4.4C486,161.5,485.8,163,485.5,164.5z M464.2,140.5c-7,0-10.8,5.2-11.3,15.6h22.4v-1.4c0-4.2-0.9-7.6-2.7-10.3
		C470.7,141.8,467.9,140.5,464.2,140.5z"/>
	<path class="st3" d="M542.8,183.1c-0.9,2.7-2.3,4.6-4.3,5.9c-4.4-0.8-7.3-3.1-8.9-6.9c-5.2,5-10.6,7.5-16.2,7.5
		c-2.8,0-5.3-0.4-7.4-1.3c-2.1-0.9-3.9-2.1-5.3-3.6c-1.4-1.5-2.5-3.3-3.2-5.2c-0.7-2-1.1-4-1.1-6.2c0-6.1,1.9-10.6,5.8-13.7
		c3.9-3.1,9-4.7,15.5-4.7c1.8,0,3.7,0.1,5.4,0.2c1.8,0.1,3.5,0.3,5.2,0.6v-4.4c0-6.6-3-9.9-9.1-9.9c-4.2,0-10,1.4-17.4,4.3
		c-2.1-1.8-3.3-4.6-3.3-8.3c7.5-3.4,15.2-5.1,22.9-5.1c5.8,0,10.2,1.5,13.4,4.6c3.2,3.1,4.8,7.7,4.8,13.9v22.7
		C539.7,178.1,540.7,181.3,542.8,183.1z M515.3,180.5c4.7,0,9.1-2.2,13.1-6.7v-10.5c-1.5-0.1-3-0.3-4.7-0.3
		c-1.6-0.1-3.3-0.1-5.1-0.1c-3.4,0-6,0.8-7.9,2.5c-1.9,1.7-2.8,3.9-2.8,6.6c0,2.7,0.7,4.7,2,6.3C511.2,179.8,513,180.5,515.3,180.5z
		"/>
	<path class="st3" d="M600.2,150.6v25.8c0,4.4,0.6,7.7,1.9,10.1c-1.9,1.6-4.2,2.4-6.8,2.4c-2.5,0-4.2-0.6-5.2-1.8
		c-0.9-1.2-1.4-3-1.4-5.5v-28.2c0-3.8-0.5-6.6-1.5-8.2c-1-1.6-2.7-2.4-5.2-2.4c-2.4,0-4.9,0.6-7.5,1.8c-2.5,1.2-4.8,2.9-6.7,5v38.5
		c-1.3,0.3-3.1,0.4-5.7,0.4c-1.2,0-2.3,0-3.2-0.1c-1-0.1-1.8-0.2-2.5-0.3v-54.5l0.7-0.7h4.3c4,0,6.1,2.3,6.3,6.9
		c5.4-4.9,11.3-7.4,17.6-7.4c5,0,8.6,1.6,11.1,4.9C599,140.7,600.2,145.1,600.2,150.6z"/>
	<path class="st3" d="M661.2,144.2l-0.1-8.2v-23.5c1.6-0.3,3.6-0.4,6-0.4c2.4,0,4.4,0.1,6,0.4v75.7c-1.7,0.3-3.7,0.4-6,0.4
		c-2.3,0-4.3-0.1-6-0.4v-25.9l0.1-8.2l-6.2,0.1h-18.7l-6.3-0.1l0.1,8.2v25.9c-1.6,0.3-3.5,0.4-5.9,0.4c-2.4,0-4.3-0.1-5.8-0.4v-75.7
		c1.5-0.3,3.4-0.4,5.8-0.4c2.4,0,4.4,0.1,5.9,0.4V136l-0.1,8.2l6.3-0.1h18.7L661.2,144.2z"/>
	<path class="st3" d="M728.1,183.5c-4.1,4.1-9.4,6.1-16.1,6.1c-3.8,0-7.2-0.7-10.2-2c-3-1.4-5.5-3.3-7.5-5.9c-2-2.5-3.6-5.6-4.7-9.1
		c-1.1-3.5-1.6-7.4-1.6-11.8c0-4.3,0.5-8.2,1.6-11.7c1.1-3.5,2.6-6.6,4.7-9.1c2-2.5,4.5-4.5,7.5-5.9c3-1.4,6.4-2.1,10.2-2.1
		c3.8,0,7.2,0.7,10.2,2.1c3,1.4,5.4,3.3,7.5,5.9c2,2.5,3.6,5.6,4.7,9.1c1.1,3.5,1.6,7.5,1.6,11.7
		C735.9,170.7,733.3,178.3,728.1,183.5z M712.1,140.7c-8,0-12,6.7-12,20.1c0,13.4,4,20.1,12,20.1c8.1,0,12.1-6.7,12.1-20.1
		C724.2,147.4,720.1,140.7,712.1,140.7z"/>
	<path class="st3" d="M749,171v-25.8c0-4.4-0.6-7.8-1.9-10c1.8-1.6,4.2-2.4,7.2-2.4c4.1,0,6.1,2.4,6.1,7.2v28.2
		c0,3.8,0.5,6.6,1.4,8.2c1,1.6,2.7,2.4,5.1,2.4c2.4,0,4.9-0.6,7.4-1.8c2.5-1.2,4.8-2.9,6.8-4.9v-38.6c2.1-0.3,4-0.4,5.7-0.4
		c1.7,0,3.7,0.1,5.9,0.4v39.2c0,5.2,1,8.7,3.1,10.5c-0.8,2.7-2.3,4.6-4.3,5.8c-4.7-0.8-7.8-3.5-9.3-8c-5.8,5.5-11.9,8.2-18.5,8.2
		c-4.9,0-8.5-1.7-11-5S749,176.5,749,171z"/>
	<path class="st3" d="M804.9,184.1c0.1-1.3,0.5-2.7,1.2-4.3c0.7-1.6,1.6-2.8,2.5-3.7c5.9,3.3,10.7,4.9,14.4,4.9
		c3.8,0,6.5-0.6,8.3-1.9c1.8-1.3,2.7-2.9,2.7-5c0-3.3-2.3-5.8-7-7.5l-6.2-2.3c-9.3-3.5-14-8.8-14-15.8c0-5.1,1.8-9.1,5.5-12
		c3.7-2.9,8.4-4.4,14.4-4.4c6,0,11.9,1.3,17.8,4c0,1.5-0.3,3-0.9,4.7c-0.6,1.6-1.5,2.9-2.5,3.8c-5.2-2.4-10.2-3.7-14.7-3.7
		c-2.4,0-4.4,0.6-5.8,1.8c-1.4,1.2-2.2,2.7-2.2,4.4c0,1.8,0.5,3.1,1.6,4.1c1.1,1,2.8,1.9,5.3,2.9l6.7,2.5
		c9.4,3.6,14.1,9.2,14.1,16.6c0,5.1-2,9.1-5.9,12.1c-3.9,3-9.2,4.4-16,4.4C817.4,189.6,811,187.8,804.9,184.1z"/>
	<path class="st3" d="M899.2,164.5h-32.6c0.2,5.1,1.3,9,3.3,11.7c2,2.7,5.3,4.1,9.9,4.1c2.2,0,4.6-0.3,7.1-1
		c2.5-0.7,5.2-1.7,7.9-3.2c1.8,1.7,3.1,4.1,3.7,7.3c-5.9,4.1-12.9,6.2-20.8,6.2c-4.2,0-7.8-0.7-10.6-2.2c-2.9-1.5-5.2-3.5-7-6.1
		c-1.8-2.6-3.1-5.7-3.9-9.3c-0.8-3.6-1.2-7.4-1.2-11.6c0-4.1,0.5-7.9,1.6-11.4c1-3.5,2.5-6.5,4.4-9c1.9-2.5,4.3-4.5,7.1-5.9
		c2.8-1.4,6-2.2,9.6-2.2s6.7,0.6,9.5,1.8c2.8,1.2,5.1,2.8,7,4.9c1.9,2.1,3.4,4.6,4.4,7.5c1,2.9,1.5,6.1,1.5,9.5
		c0,1.5-0.1,2.9-0.2,4.4C899.7,161.5,899.5,163,899.2,164.5z M877.9,140.5c-7,0-10.8,5.2-11.3,15.6H889v-1.4c0-4.2-0.9-7.6-2.7-10.3
		C884.5,141.8,881.7,140.5,877.9,140.5z"/>
</g>
</svg>
