<?xml version="1.0" encoding="utf-8"?>
<!-- Generator: Adobe Illustrator 23.0.1, SVG Export Plug-In . SVG Version: 6.00 Build 0)  -->
<svg version="1.1" id="Camada_1" xmlns="http://www.w3.org/2000/svg" xmlns:xlink="http://www.w3.org/1999/xlink" x="0px" y="0px"
	 viewBox="0 0 309.4 378.1" style="enable-background:new 0 0 309.4 378.1;" xml:space="preserve">
<style type="text/css">
	.st0{fill:#0076BE;}
	.st1{fill:#2B9E00;}
	.st2{fill:url(#SVGID_1_);}
	.st3{fill:#FFFFFF;}
</style>
<g>
	
		<image style="overflow:visible;opacity:0.75;" width="321" height="171" xlink:href="C6348D4E.png"  transform="matrix(1 0 0 1 -4.2128 -5.8298)">
	</image>
	<g>
		<polygon class="st0" points="0.8,157.6 37.7,119.8 37.7,77.3 53.7,77.3 53.7,104.9 156.2,0 309.4,157.6 287.6,157.6 155.1,22.1 
			24.4,157.6 		"/>
	</g>
</g>
<g>
	
		<image style="overflow:visible;opacity:0.75;" width="45" height="45" xlink:href="C6348D52.png"  transform="matrix(1 0 0 1 115.7872 72.1702)">
	</image>
	<g>
		<rect x="120.9" y="77.3" class="st0" width="32.9" height="32.9"/>
	</g>
</g>
<g>
	
		<image style="overflow:visible;opacity:0.75;" width="46" height="45" xlink:href="C6348D55.png"  transform="matrix(1 0 0 1 154.7872 72.1702)">
	</image>
	<g>
		<rect x="160.3" y="77.3" class="st0" width="32.9" height="32.9"/>
	</g>
</g>
<g>
	
		<image style="overflow:visible;opacity:0.75;" width="45" height="46" xlink:href="C6348D56.png"  transform="matrix(1 0 0 1 115.7872 111.1702)">
	</image>
	<g>
		<rect x="120.9" y="117.1" class="st0" width="32.9" height="32.9"/>
	</g>
</g>
<g>
	
		<image style="overflow:visible;opacity:0.75;" width="46" height="46" xlink:href="C6348D54.png"  transform="matrix(1 0 0 1 154.7872 111.1702)">
	</image>
	<g>
		<rect x="160.3" y="117.1" class="st0" width="32.9" height="32.9"/>
	</g>
</g>
<g>
	
		<image style="overflow:visible;opacity:0.75;" width="319" height="151" xlink:href="C6348D53.png"  transform="matrix(1 0 0 1 -4.2128 158.1702)">
	</image>
	<g>
		<path class="st1" d="M0.8,167.7c0,0,18.1,17.2,42.7,18.3s36.3,0.1,49.8-5s74-32.2,125.5,17.6c0,0,1.4,1.6,2.6,2
			c0,0-34.8,37-130.5,24c0,0,39.3,27.3,99.1,25s106.5-59.7,117.8-86.3c0,0-6.2,138.6-150.5,138.6C17.9,302,0.8,167.7,0.8,167.7z"/>
	</g>
</g>
<linearGradient id="SVGID_1_" gradientUnits="userSpaceOnUse" x1="155.0745" y1="167.1989" x2="155.0745" y2="265.5692">
	<stop  offset="0" style="stop-color:#FFFFFF;stop-opacity:0"/>
	<stop  offset="0.8591" style="stop-color:#FFFFFF;stop-opacity:0.3436"/>
	<stop  offset="1" style="stop-color:#FFFFFF;stop-opacity:0.4"/>
</linearGradient>
<path class="st2" d="M6.9,170.4c0,0,17.5,16.6,41.2,17.7s35.1,0.1,48.1-4.8s71.4-31.1,121.2,17c0,0,1.3,1.6,2.5,2
	c0,0-33.6,35.7-126,23.2c0,0,38,26.4,95.7,24.2c57.7-2.2,102.8-57.7,113.8-83.3c0,0-6,133.9-145.3,133.9
	C23.3,300.1,6.9,170.4,6.9,170.4z"/>
<g>
	
		<image style="overflow:visible;opacity:0.75;" width="316" height="58" xlink:href="C6348D5D.png"  transform="matrix(1 0 0 1 -2.2128 312.1702)">
	</image>
	<g>
		<g>
			<path class="st3" d="M27.8,335.2c0-1.3-0.2-2.5-0.5-3.7c-0.3-1.2-0.8-2.2-1.5-3.1c-0.7-0.9-1.6-1.6-2.7-2.2s-2.4-0.8-4-0.8
				c-3.1,0-5.5,1.4-7.1,4.2c-1.6,2.8-2.4,6.8-2.4,11.9c0,5.1,0.9,9.1,2.6,11.8c1.7,2.7,4.3,4.1,7.7,4.1s6.9-1.5,10.6-4.5
				c1.7,1.1,2.7,2.5,3.2,4.2c-0.9,0.9-1.9,1.7-3.1,2.4c-1.1,0.7-2.4,1.4-3.6,1.9c-1.3,0.5-2.6,1-3.9,1.3c-1.3,0.3-2.7,0.5-4,0.5
				c-3.1,0-5.7-0.6-7.8-1.8c-2.1-1.2-3.7-2.8-4.9-4.7c-1.2-2-2.1-4.2-2.7-6.8c-0.6-2.6-0.9-5.2-0.9-7.9c0-3.6,0.4-6.8,1.3-9.5
				c0.8-2.7,2-4.9,3.5-6.7c1.5-1.8,3.2-3.1,5.2-4c2-0.9,4.1-1.4,6.3-1.4c2.3,0,4.4,0.3,6.2,1c1.8,0.6,3.4,1.5,4.7,2.6
				c1.3,1.1,2.3,2.3,3,3.7c0.7,1.4,1,2.9,1,4.5c0,2.4-1.2,3.6-3.6,3.6C29.7,335.5,28.8,335.4,27.8,335.2z"/>
			<path class="st3" d="M49.6,357.5h2.2c0.4,1,0.5,1.9,0.5,2.7s-0.1,1.4-0.2,1.8c-1.6,0.3-3.3,0.4-5.1,0.4c-4,0-6-2.1-6-6.2v-38.1
				l0.4-0.4h2.4c1.2,0,2.1,0.3,2.6,0.9c0.5,0.6,0.8,1.6,0.8,3v33C47.2,356.6,48,357.5,49.6,357.5z"/>
			<path class="st3" d="M80.5,349.2H62.7c0.1,2.8,0.7,4.9,1.8,6.4c1.1,1.5,2.9,2.2,5.4,2.2c1.2,0,2.5-0.2,3.9-0.5
				c1.4-0.4,2.8-0.9,4.3-1.8c1,0.9,1.7,2.3,2,4c-3.2,2.3-7,3.4-11.4,3.4c-2.3,0-4.2-0.4-5.8-1.2c-1.6-0.8-2.8-1.9-3.8-3.3
				c-1-1.4-1.7-3.1-2.1-5c-0.4-2-0.7-4.1-0.7-6.3c0-2.2,0.3-4.3,0.8-6.2c0.6-1.9,1.4-3.6,2.4-4.9c1-1.4,2.3-2.4,3.9-3.2
				c1.5-0.8,3.3-1.2,5.2-1.2s3.7,0.3,5.2,1c1.5,0.6,2.8,1.5,3.8,2.7c1,1.1,1.8,2.5,2.4,4.1c0.5,1.6,0.8,3.3,0.8,5.2
				c0,0.8,0,1.6-0.1,2.4S80.6,348.4,80.5,349.2z M68.9,336.2c-3.8,0-5.9,2.8-6.2,8.5h12.2v-0.8c0-2.3-0.5-4.2-1.5-5.6
				C72.4,336.9,70.9,336.2,68.9,336.2z"/>
			<path class="st3" d="M111.7,359.4c-0.5,1.5-1.3,2.5-2.4,3.2c-2.4-0.4-4-1.7-4.8-3.7c-2.9,2.7-5.8,4.1-8.8,4.1
				c-1.5,0-2.9-0.2-4-0.7s-2.1-1.1-2.9-2c-0.8-0.8-1.4-1.8-1.8-2.8c-0.4-1.1-0.6-2.2-0.6-3.4c0-3.3,1.1-5.8,3.2-7.5
				c2.1-1.7,4.9-2.5,8.4-2.5c1,0,2,0,3,0.1c1,0.1,1.9,0.2,2.8,0.3v-2.4c0-3.6-1.7-5.4-5-5.4c-2.3,0-5.5,0.8-9.5,2.4
				c-1.2-1-1.8-2.5-1.8-4.5c4.1-1.9,8.3-2.8,12.5-2.8c3.1,0,5.6,0.8,7.3,2.5c1.7,1.7,2.6,4.2,2.6,7.6v12.4
				C110,356.7,110.6,358.4,111.7,359.4z M96.7,358c2.6,0,5-1.2,7.1-3.6v-5.7c-0.8-0.1-1.7-0.1-2.5-0.2c-0.9,0-1.8-0.1-2.8-0.1
				c-1.9,0-3.3,0.5-4.3,1.4c-1,0.9-1.5,2.1-1.5,3.6c0,1.5,0.4,2.6,1.1,3.4C94.5,357.6,95.5,358,96.7,358z"/>
			<path class="st3" d="M143,341.7v14.1c0,2.4,0.3,4.2,1,5.5c-1,0.9-2.3,1.3-3.7,1.3c-1.4,0-2.3-0.3-2.8-1c-0.5-0.7-0.8-1.7-0.8-3
				v-15.3c0-2.1-0.3-3.6-0.8-4.5c-0.5-0.9-1.5-1.3-2.8-1.3s-2.7,0.3-4.1,1c-1.4,0.7-2.6,1.6-3.7,2.7v21c-0.7,0.2-1.7,0.2-3.1,0.2
				c-0.6,0-1.2,0-1.8-0.1c-0.5,0-1-0.1-1.4-0.2v-29.7l0.4-0.4h2.4c2.2,0,3.3,1.2,3.4,3.7c2.9-2.7,6.1-4,9.6-4c2.7,0,4.7,0.9,6,2.7
				S143,338.7,143,341.7z"/>
			<path class="st3" d="M176.3,338.2l-0.1-4.5v-12.8c0.9-0.2,1.9-0.2,3.3-0.2s2.4,0.1,3.3,0.2v41.3c-0.9,0.2-2,0.2-3.3,0.2
				c-1.2,0-2.3-0.1-3.3-0.2V348l0.1-4.5l-3.4,0.1h-10.2l-3.4-0.1l0.1,4.5v14.1c-0.8,0.2-1.9,0.2-3.2,0.2c-1.3,0-2.4-0.1-3.2-0.2
				v-41.3c0.8-0.2,1.9-0.2,3.2-0.2c1.3,0,2.4,0.1,3.2,0.2v12.8l-0.1,4.5l3.4-0.1h10.2L176.3,338.2z"/>
			<path class="st3" d="M212.7,359.6c-2.2,2.2-5.1,3.3-8.8,3.3c-2.1,0-3.9-0.4-5.6-1.1c-1.6-0.7-3-1.8-4.1-3.2c-1.1-1.4-2-3-2.5-5
				c-0.6-1.9-0.9-4.1-0.9-6.4c0-2.3,0.3-4.5,0.9-6.4c0.6-1.9,1.4-3.6,2.5-5c1.1-1.4,2.5-2.5,4.1-3.2c1.6-0.7,3.5-1.1,5.6-1.1
				c2.1,0,3.9,0.4,5.6,1.1c1.6,0.7,3,1.8,4.1,3.2c1.1,1.4,2,3.1,2.5,5c0.6,1.9,0.9,4.1,0.9,6.4C217,352.7,215.6,356.8,212.7,359.6z
				 M204,336.3c-4.4,0-6.6,3.6-6.6,10.9c0,7.3,2.2,10.9,6.6,10.9c4.4,0,6.6-3.6,6.6-10.9C210.6,340,208.4,336.3,204,336.3z"/>
			<path class="st3" d="M224.1,352.8v-14.1c0-2.4-0.3-4.2-1-5.4c1-0.9,2.3-1.3,3.9-1.3c2.2,0,3.3,1.3,3.3,3.9v15.4
				c0,2.1,0.3,3.6,0.8,4.5c0.5,0.9,1.4,1.3,2.8,1.3s2.7-0.3,4-1c1.4-0.7,2.6-1.6,3.7-2.7v-21c1.1-0.2,2.2-0.2,3.1-0.2s2,0.1,3.2,0.2
				v21.4c0,2.8,0.6,4.7,1.7,5.7c-0.4,1.5-1.2,2.5-2.4,3.1c-2.5-0.4-4.2-1.9-5.1-4.3c-3.1,3-6.5,4.5-10.1,4.5c-2.7,0-4.7-0.9-6-2.7
				S224.1,355.8,224.1,352.8z"/>
			<path class="st3" d="M254.6,359.9c0-0.7,0.3-1.5,0.7-2.3c0.4-0.9,0.9-1.5,1.4-2c3.2,1.8,5.8,2.7,7.8,2.7c2,0,3.6-0.3,4.5-1
				c1-0.7,1.5-1.6,1.5-2.7c0-1.8-1.3-3.1-3.8-4.1l-3.4-1.3c-5.1-1.9-7.6-4.8-7.6-8.6c0-2.8,1-5,3-6.6c2-1.6,4.6-2.4,7.8-2.4
				c3.3,0,6.5,0.7,9.7,2.2c0,0.8-0.2,1.7-0.5,2.5c-0.3,0.9-0.8,1.6-1.4,2.1c-2.9-1.3-5.5-2-8-2c-1.3,0-2.4,0.3-3.2,1
				c-0.8,0.6-1.2,1.5-1.2,2.4c0,1,0.3,1.7,0.9,2.2c0.6,0.5,1.5,1,2.9,1.6l3.6,1.4c5.1,2,7.7,5,7.7,9.1c0,2.8-1.1,5-3.2,6.6
				c-2.1,1.6-5,2.4-8.7,2.4C261.4,363,257.9,362,254.6,359.9z"/>
			<path class="st3" d="M306,349.2h-17.8c0.1,2.8,0.7,4.9,1.8,6.4c1.1,1.5,2.9,2.2,5.4,2.2c1.2,0,2.5-0.2,3.9-0.5
				c1.4-0.4,2.8-0.9,4.3-1.8c1,0.9,1.7,2.3,2,4c-3.2,2.3-7,3.4-11.4,3.4c-2.3,0-4.2-0.4-5.8-1.2c-1.6-0.8-2.9-1.9-3.8-3.3
				c-1-1.4-1.7-3.1-2.1-5c-0.4-2-0.7-4.1-0.7-6.3c0-2.2,0.3-4.3,0.8-6.2c0.6-1.9,1.4-3.6,2.4-4.9c1-1.4,2.3-2.4,3.9-3.2
				s3.3-1.2,5.2-1.2c1.9,0,3.7,0.3,5.2,1c1.5,0.6,2.8,1.5,3.8,2.7c1,1.1,1.8,2.5,2.4,4.1s0.8,3.3,0.8,5.2c0,0.8,0,1.6-0.1,2.4
				C306.3,347.6,306.1,348.4,306,349.2z M294.4,336.2c-3.8,0-5.9,2.8-6.2,8.5h12.2v-0.8c0-2.3-0.5-4.2-1.5-5.6
				S296.4,336.2,294.4,336.2z"/>
		</g>
	</g>
</g>
</svg>
