<?xml version="1.0" encoding="utf-8"?>
<!-- Generator: Adobe Illustrator 23.0.1, SVG Export Plug-In . SVG Version: 6.00 Build 0)  -->
<svg version="1.1" id="Camada_1" xmlns="http://www.w3.org/2000/svg" xmlns:xlink="http://www.w3.org/1999/xlink" x="0px" y="0px"
	 viewBox="0 0 309.36 378.15" style="enable-background:new 0 0 309.36 378.15;" xml:space="preserve">
<style type="text/css">
	.st0{fill:#0076BE;}
	.st1{fill:#2B9E00;}
	.st2{fill:url(#SVGID_1_);}
	.st3{font-family:'SchnebelSansProCond-Medium';}
	.st4{font-size:65.5667px;}
	.st5{fill:#349901;}
</style>
<polygon class="st0" points="0.79,157.62 37.7,119.83 37.7,77.28 53.7,77.28 53.7,104.85 156.17,0 309.36,157.62 287.57,157.62 
	155.07,22.13 24.43,157.62 "/>
<rect x="120.89" y="77.28" class="st0" width="32.89" height="32.89"/>
<rect x="160.34" y="77.28" class="st0" width="32.89" height="32.89"/>
<rect x="120.89" y="117.11" class="st0" width="32.89" height="32.89"/>
<rect x="160.34" y="117.11" class="st0" width="32.89" height="32.89"/>
<path class="st1" d="M0.79,167.66c0,0,18.11,17.19,42.7,18.3s36.34,0.09,49.79-5.02s73.96-32.17,125.53,17.62
	c0,0,1.37,1.63,2.62,2.04c0,0-34.79,37.02-130.53,24c0,0,39.32,27.32,99.06,25.02s106.47-59.74,117.83-86.3
	c0,0-6.18,138.64-150.51,138.64C17.87,301.96,0.79,167.66,0.79,167.66z"/>
<linearGradient id="SVGID_1_" gradientUnits="userSpaceOnUse" x1="155.0745" y1="167.1989" x2="155.0745" y2="265.5692">
	<stop  offset="0" style="stop-color:#FFFFFF;stop-opacity:0"/>
	<stop  offset="0.8591" style="stop-color:#FFFFFF;stop-opacity:0.3436"/>
	<stop  offset="1" style="stop-color:#FFFFFF;stop-opacity:0.4"/>
</linearGradient>
<path class="st2" d="M6.85,170.4c0,0,17.48,16.6,41.23,17.67s35.09,0.08,48.08-4.85s71.42-31.06,121.22,17.01
	c0,0,1.33,1.57,2.53,1.97c0,0-33.59,35.75-126.04,23.17c0,0,37.97,26.38,95.66,24.16c57.69-2.22,102.81-57.69,113.78-83.33
	c0,0-5.97,133.87-145.34,133.87C23.35,300.09,6.85,170.4,6.85,170.4z"/>
<text transform="matrix(1 0 0 1 3.106 363.8196)"><tspan x="0" y="0" class="st0 st3 st4">Clean</tspan><tspan x="143.81" y="0" class="st5 st3 st4">House</tspan></text>
</svg>
