<?xml version="1.0" encoding="utf-8"?>
<!-- Generator: Adobe Illustrator 23.0.1, SVG Export Plug-In . SVG Version: 6.00 Build 0)  -->
<svg version="1.1" id="Camada_1" xmlns="http://www.w3.org/2000/svg" xmlns:xlink="http://www.w3.org/1999/xlink" x="0px" y="0px"
	 viewBox="0 0 309.4 302" style="enable-background:new 0 0 309.4 302;" xml:space="preserve">
<style type="text/css">
	.st0{fill:#0076BE;}
	.st1{fill:#2B9E00;}
	.st2{fill:url(#SVGID_1_);}
</style>
<polygon class="st0" points="0.8,157.6 37.7,119.8 37.7,77.3 53.7,77.3 53.7,104.9 156.2,0 309.4,157.6 287.6,157.6 155.1,22.1 
	24.4,157.6 "/>
<rect x="120.9" y="77.3" class="st0" width="32.9" height="32.9"/>
<rect x="160.3" y="77.3" class="st0" width="32.9" height="32.9"/>
<rect x="120.9" y="117.1" class="st0" width="32.9" height="32.9"/>
<rect x="160.3" y="117.1" class="st0" width="32.9" height="32.9"/>
<path class="st1" d="M0.8,167.7c0,0,18.1,17.2,42.7,18.3s36.3,0.1,49.8-5s74-32.2,125.5,17.6c0,0,1.4,1.6,2.6,2
	c0,0-34.8,37-130.5,24c0,0,39.3,27.3,99.1,25s106.5-59.7,117.8-86.3c0,0-6.2,138.6-150.5,138.6C17.9,302,0.8,167.7,0.8,167.7z"/>
<linearGradient id="SVGID_1_" gradientUnits="userSpaceOnUse" x1="155.0745" y1="167.1989" x2="155.0745" y2="265.5692">
	<stop  offset="0" style="stop-color:#FFFFFF;stop-opacity:0"/>
	<stop  offset="0.8591" style="stop-color:#FFFFFF;stop-opacity:0.3436"/>
	<stop  offset="1" style="stop-color:#FFFFFF;stop-opacity:0.4"/>
</linearGradient>
<path class="st2" d="M6.9,170.4c0,0,17.5,16.6,41.2,17.7s35.1,0.1,48.1-4.8s71.4-31.1,121.2,17c0,0,1.3,1.6,2.5,2
	c0,0-33.6,35.7-126,23.2c0,0,38,26.4,95.7,24.2c57.7-2.2,102.8-57.7,113.8-83.3c0,0-6,133.9-145.3,133.9
	C23.3,300.1,6.9,170.4,6.9,170.4z"/>
</svg>
