<svg id="Capa_1" enable-background="new 0 0 512 512" height="512" viewBox="0 0 512 512" width="512" xmlns="http://www.w3.org/2000/svg"><g><path d="m497 369h-18v-33c0-8.284-6.716-15-15-15s-15 6.716-15 15v33h-20v143h68c8.284 0 15-6.716 15-15v-113c0-8.284-6.716-15-15-15z"/><path d="m83 369h-20v-33c0-8.284-6.716-15-15-15s-15 6.716-15 15v33h-18c-8.284 0-15 6.716-15 15v113c0 8.284 6.716 15 15 15h68z"/><path d="m113 512h72v-80c0-8.284 6.716-15 15-15h112c8.284 0 15 6.716 15 15v80h72c0-24.796 0-474.107 0-497 0-8.284-6.716-15-15-15h-256c-8.284 0-15 6.716-15 15zm103-161h-16c-8.284 0-15-6.716-15-15s6.716-15 15-15h16c8.284 0 15 6.716 15 15s-6.716 15-15 15zm0-64h-16c-8.284 0-15-6.716-15-15s6.716-15 15-15h16c8.284 0 15 6.716 15 15s-6.716 15-15 15zm0-64h-16c-8.284 0-15-6.716-15-15s6.716-15 15-15h16c8.284 0 15 6.716 15 15s-6.716 15-15 15zm0-64h-16c-8.284 0-15-6.716-15-15s6.716-15 15-15h16c8.284 0 15 6.716 15 15s-6.716 15-15 15zm96 192h-16c-8.284 0-15-6.716-15-15s6.716-15 15-15h16c8.284 0 15 6.716 15 15s-6.716 15-15 15zm0-64h-16c-8.284 0-15-6.716-15-15s6.716-15 15-15h16c8.284 0 15 6.716 15 15s-6.716 15-15 15zm0-64h-16c-8.284 0-15-6.716-15-15s6.716-15 15-15h16c8.284 0 15 6.716 15 15s-6.716 15-15 15zm0-64h-16c-8.284 0-15-6.716-15-15s6.716-15 15-15h16c8.284 0 15 6.716 15 15s-6.716 15-15 15zm-120-94h128c8.284 0 15 6.716 15 15s-6.716 15-15 15h-128c-8.284 0-15-6.716-15-15s6.716-15 15-15z"/><path d="m215 512h82v-65h-82z"/></g></svg>