<svg id="Layer_5" enable-background="new 0 0 64 64" height="512" viewBox="0 0 64 64" width="512" xmlns="http://www.w3.org/2000/svg"><g><path d="m27 9h2v4h2v-4h2v4h2v-4h2v4h2v-4h2v4h2v-6h-18v6h2z"/><path d="m8.071 55c.224-1.559.967-2.949 2.043-4h-1.114v-2h2v1.264c.604-.423 1.277-.753 2-.969v-10.295h-6v16.08c.328-.047.66-.08 1-.08zm.929-14h2v2h-2zm0 4h2v2h-2z"/><path d="m21.404 53.186c.93-.219 1.903-.245 2.853-.069.645-2.334 2.457-4.13 4.743-4.809v-13.308h-14v14c2.798 0 5.302 1.678 6.404 4.186zm3.596-16.186h2v2h-2zm0 4h2v2h-2zm0 4h2v2h-2zm-4-8h2v2h-2zm0 4h2v2h-2zm0 4h2v2h-2zm-2 2h-2v-2h2zm0-4h-2v-2h2zm0-4h-2v-2h2z"/><path d="m57 13h2v4h-2z"/><path d="m53 13h2v4h-2z"/><path d="m61 10c0-2.757-2.243-5-5-5s-5 2.243-5 5v1h10z"/><path d="m28 3h12v2h-12z"/><path d="m56 37c1.958 0 3.728 1.042 5 2.714v-20.714h-10v20.718c1.29-1.697 3.07-2.718 5-2.718zm1-16h2v2h-2zm0 4h2v2h-2zm0 4h2v2h-2zm0 4h2v2h-2zm-4-12h2v2h-2zm0 4h2v2h-2zm0 4h2v2h-2zm0 4h2v2h-2z"/><path d="m31 46h3.446l.178-.285c2.969-4.75 5.472-9.819 7.439-15.066l.244-.649h2.693v-15h-22v18h8zm-5-28h16v4h-16zm0 12v-4h16v4z"/><path d="m57 61v-8.141c2.282-.649 4-3.473 4-6.859 0-3.866-2.239-7-5-7-2.683 0-4.865 2.96-4.988 6.673-2.626-4.345-4.88-8.934-6.702-13.673h-.62c-1.867 4.856-4.182 9.56-6.892 14h6.202v-.586l-2.707-2.707 1.414-1.414 1.293 1.293v-4.586h2v2.132l1.445-.964 1.109 1.664-2.554 1.703v3.465h6c0 3.386 1.718 6.211 4 6.859v8.141h-10v-15h-2v14c0-2.757-2.243-5-5-5-.287 0-.579.028-.896.085l-1.014.186-.154-1.021c-.364-2.423-2.486-4.25-4.936-4.25-2.564 0-4.701 1.92-4.971 4.467l-.134 1.268-1.199-.433c-1.174-.422-2.411-.395-3.541.055l-1.041.416-.294-1.083c-.59-2.172-2.572-3.69-4.82-3.69-2.757 0-5 2.243-5 5v1.185l-1.163-.108c-.303-.052-.577-.077-.837-.077-2.415 0-4.435 1.721-4.899 4h-2.101v2h62v-2z"/></g></svg>