<svg id="Capa_1" enable-background="new 0 0 512 512" height="512" viewBox="0 0 512 512" width="512" xmlns="http://www.w3.org/2000/svg"><g><path d="m208.177 370.443h95.646v106.57h-95.646z"/><path d="m0 477.014h105.5v-189.813h-105.5zm35.883-143.514h33.734v30h-33.734zm0 67.214h33.734v30h-33.734z"/><path d="m333.823 130.279h-30.353v30.354h-94.94v-30.354h-30.354v-32.469h-42.676v379.204h42.677v-136.57h155.646v136.57h42.677v-379.204h-42.677zm-102.163 172.949h-33.734v-30h33.734zm0-67.214h-33.734v-30h33.734zm82.414 67.214h-33.734v-30h33.734zm0-67.214h-33.734v-30h33.734z"/><path d="m406.5 287.201v189.813h105.5v-189.813zm69.617 143.513h-33.734v-30h33.734zm0-67.214h-33.734v-30h33.734z"/><path d="m238.53 130.633h34.94v-30.354h30.353v-34.939h-30.353v-30.354h-34.94v30.354h-30.353v34.939h30.353z"/></g></svg>