<?xml version="1.0" encoding="utf-8"?>
<!-- Generator: Adobe Illustrator 23.0.1, SVG Export Plug-In . SVG Version: 6.00 Build 0)  -->
<svg version="1.1" id="Camada_1" xmlns="http://www.w3.org/2000/svg" xmlns:xlink="http://www.w3.org/1999/xlink" x="0px" y="0px"
	 viewBox="0 0 100 100" style="enable-background:new 0 0 100 100;" xml:space="preserve">
<style type="text/css">
	.st0{fill:#0B708A;}
	.st1{fill:#1F96BF;}
	.st2{fill:#D1D3D4;}
</style>
<g>
	<path class="st0" d="M49.1,3.5V97c25.7-0.1,46.6-21,46.6-46.7S74.9,3.6,49.1,3.5z"/>
	<path class="st1" d="M49.8,3.5c-0.1,0-0.3,0-0.4,0C23.6,3.5,2.7,24.5,2.7,50.3S23.6,97,49.4,97c0.1,0,0.3,0,0.4,0V3.5z"/>
	<g>
		<path class="st2" d="M49.7,98.2c-26.3,0-47.7-21.4-47.7-47.7c0-26.3,21.4-47.7,47.7-47.7s47.7,21.4,47.7,47.7
			C97.4,76.8,76,98.2,49.7,98.2z M49.7,4.8C24.4,4.8,3.9,25.3,3.9,50.5s20.5,45.7,45.7,45.7s45.7-20.5,45.7-45.7S74.9,4.8,49.7,4.8z
			"/>
	</g>
</g>
</svg>
