<?xml version="1.0" encoding="utf-8"?>
<!-- Generator: Adobe Illustrator 23.0.1, SVG Export Plug-In . SVG Version: 6.00 Build 0)  -->
<svg version="1.1" id="Camada_1" xmlns="http://www.w3.org/2000/svg" xmlns:xlink="http://www.w3.org/1999/xlink" x="0px" y="0px"
	 viewBox="0 0 100 100" style="enable-background:new 0 0 100 100;" xml:space="preserve">
<style type="text/css">
	.st0{fill:#D1D3D4;}
	.st1{fill:#27AAE1;}
	.st2{fill:#1F96BF;}
</style>
<g>
	<path class="st0" d="M49.8,98C23.4,98,2,76.6,2,50.3C2,23.9,23.4,2.5,49.8,2.5s47.7,21.4,47.7,47.7C97.5,76.6,76.1,98,49.8,98z
		 M49.8,4.5C24.5,4.5,4,25,4,50.3S24.5,96,49.8,96s45.7-20.5,45.7-45.7S75,4.5,49.8,4.5z"/>
	<g>
		<path class="st1" d="M69.8,13.2c-2.2,0-3.9,1.8-3.9,3.9c0,0.8,0.2,1.5,0.7,2.2c-4.1,6-9.5,6.6-9.5,6.6c3.8,0.6,5.5,3.1,5.5,3.1
			c-0.8-2.3,4.8-7.1,6-8.2c0.4,0.1,0.8,0.2,1.2,0.2c2.2,0,3.9-1.8,3.9-3.9C73.7,15,71.9,13.2,69.8,13.2z"/>
		<path class="st1" d="M42.3,44.9c-2.5-3-2.1-6-2.1-6c-1,2.3-8.3,2.3-9.9,2.3c-0.2-0.3-0.5-0.7-0.8-0.9c-1.6-1.4-4.1-1.2-5.5,0.4
			c-1.4,1.6-1.2,4.1,0.4,5.5c1.6,1.4,4.1,1.2,5.5-0.4c0.5-0.6,0.8-1.3,0.9-2.1C37.8,41.8,42.3,44.9,42.3,44.9z"/>
		<path class="st1" d="M81.4,33.9c-1.4-1.5-3.8-1.6-5.4-0.2c-0.6,0.5-0.9,1.2-1.1,1.9c-7,1.1-11-2.4-11-2.4c2.1,3.1,1.4,6,1.4,6
			c1.2-2.1,8.2-1.3,9.8-1.1c0.2,0.4,0.4,0.7,0.6,1c1.4,1.5,3.8,1.6,5.4,0.2C82.7,37.8,82.8,35.4,81.4,33.9z"/>
		<path class="st1" d="M68.4,53.2c-0.6-0.1-1.2-0.1-1.8,0.1c-4-4.2-3.5-8.6-3.5-8.6c-1.1,2.9-3.4,3.8-3.4,3.8c2-0.2,4.7,5,5.4,6.1
			c-0.2,0.3-0.3,0.6-0.4,0.9c-0.4,1.7,0.7,3.4,2.4,3.7c1.7,0.4,3.4-0.7,3.7-2.4C71.1,55.2,70,53.6,68.4,53.2z"/>
		<path class="st1" d="M52.7,49.8c-2.2,0.8-3.9-0.1-3.9-0.1c1.1,1-0.5,5.3-0.8,6.2c-0.2,0-0.5,0.1-0.7,0.2c-1.2,0.6-1.6,2.1-1,3.3
			c0.6,1.2,2.1,1.6,3.3,1s1.6-2.1,1-3.3c-0.2-0.4-0.6-0.8-1-1C50,51.7,52.7,49.8,52.7,49.8z"/>
		<path class="st1" d="M44.3,20.9c0.2-0.2,0.3-0.4,0.4-0.6c0.5-1.2-0.1-2.6-1.4-3.1s-2.6,0.1-3.1,1.4c-0.5,1.2,0.1,2.6,1.4,3.1
			c0.5,0.2,0.9,0.2,1.4,0.1c2.5,3.7,1.7,6.9,1.7,6.9c1.2-2.1,3-2.5,3-2.5C46.1,26.1,44.6,21.9,44.3,20.9z"/>
		<circle class="st1" cx="52.9" cy="37.6" r="13"/>
		<ellipse class="st2" cx="47.8" cy="32.6" rx="1.7" ry="2.4"/>
		<ellipse class="st2" cx="58.4" cy="36" rx="1.8" ry="2.3"/>
		<ellipse class="st2" cx="47.3" cy="44.6" rx="2.3" ry="2.2"/>
		<ellipse class="st2" cx="55.6" cy="28.9" rx="1.9" ry="1.4"/>
		<ellipse class="st2" cx="56.9" cy="45" rx="2.2" ry="2.3"/>
	</g>
	<g>
		<path class="st1" d="M32.6,52.2c-0.9,0-1.7,0.8-1.7,1.7c0,0.3,0.1,0.7,0.3,0.9c-1.8,2.6-4.2,2.9-4.2,2.9c1.7,0.3,2.4,1.4,2.4,1.4
			c-0.3-1,2.1-3.1,2.6-3.6c0.2,0.1,0.3,0.1,0.5,0.1c0.9,0,1.7-0.8,1.7-1.7C34.4,53,33.6,52.2,32.6,52.2z"/>
		<path class="st1" d="M20.6,66.1c-1.1-1.3-0.9-2.6-0.9-2.6c-0.4,1-3.6,1-4.4,1c-0.1-0.1-0.2-0.3-0.3-0.4c-0.7-0.6-1.8-0.5-2.4,0.2
			C12,64.9,12,66,12.8,66.6c0.7,0.6,1.8,0.5,2.4-0.2c0.2-0.3,0.4-0.6,0.4-0.9C18.7,64.7,20.6,66.1,20.6,66.1z"/>
		<path class="st1" d="M37.7,61.2c-0.6-0.7-1.7-0.7-2.4-0.1c-0.2,0.2-0.4,0.5-0.5,0.8c-3.1,0.5-4.8-1.1-4.8-1.1
			c0.9,1.4,0.6,2.6,0.6,2.6c0.5-0.9,3.6-0.6,4.3-0.5c0.1,0.2,0.2,0.3,0.3,0.4c0.6,0.7,1.7,0.7,2.4,0.1C38.3,63,38.4,61.9,37.7,61.2z
			"/>
		<path class="st1" d="M32,69.7c-0.3-0.1-0.5,0-0.8,0.1c-1.7-1.8-1.5-3.7-1.5-3.7c-0.5,1.3-1.5,1.7-1.5,1.7c0.9-0.1,2.1,2.2,2.3,2.7
			c-0.1,0.1-0.1,0.3-0.2,0.4c-0.2,0.7,0.3,1.5,1,1.6c0.7,0.2,1.5-0.3,1.6-1C33.2,70.6,32.8,69.9,32,69.7z"/>
		<path class="st1" d="M25.2,68.2c-1,0.4-1.7,0-1.7,0c0.5,0.5-0.2,2.3-0.4,2.7c-0.1,0-0.2,0.1-0.3,0.1c-0.5,0.3-0.7,0.9-0.4,1.4
			c0.3,0.5,0.9,0.7,1.4,0.4c0.5-0.3,0.7-0.9,0.4-1.4c-0.1-0.2-0.3-0.3-0.4-0.4C24,69.1,25.2,68.2,25.2,68.2z"/>
		<path class="st1" d="M21.5,55.6c0.1-0.1,0.1-0.2,0.2-0.3c0.2-0.5-0.1-1.2-0.6-1.4c-0.5-0.2-1.2,0.1-1.4,0.6
			c-0.2,0.5,0.1,1.2,0.6,1.4c0.2,0.1,0.4,0.1,0.6,0c1.1,1.6,0.7,3,0.7,3c0.5-0.9,1.3-1.1,1.3-1.1C22.3,57.9,21.6,56,21.5,55.6z"/>
		<circle class="st1" cx="25.3" cy="62.9" r="5.7"/>
		<ellipse class="st2" cx="23" cy="60.7" rx="0.7" ry="1"/>
		<ellipse class="st2" cx="27.7" cy="62.2" rx="0.8" ry="1"/>
		<ellipse class="st2" cx="22.8" cy="65.9" rx="1" ry="1"/>
		<ellipse class="st2" cx="26.4" cy="59" rx="0.8" ry="0.6"/>
		<ellipse class="st2" cx="27" cy="66.1" rx="1" ry="1"/>
	</g>
	<g>
		<path class="st1" d="M70.1,63.9c-1.2,0-2.2,1-2.2,2.2c0,0.4,0.1,0.9,0.4,1.2c-2.3,3.4-5.3,3.7-5.3,3.7c2.2,0.3,3.1,1.8,3.1,1.8
			c-0.4-1.3,2.7-4,3.4-4.6c0.2,0.1,0.4,0.1,0.7,0.1c1.2,0,2.2-1,2.2-2.2C72.3,64.9,71.3,63.9,70.1,63.9z"/>
		<path class="st1" d="M54.7,81.8c-1.4-1.7-1.2-3.4-1.2-3.4c-0.5,1.3-4.6,1.3-5.6,1.3c-0.1-0.2-0.3-0.4-0.4-0.5
			c-0.9-0.8-2.3-0.7-3.1,0.2c-0.8,0.9-0.7,2.3,0.2,3.1c0.9,0.8,2.3,0.7,3.1-0.2c0.3-0.3,0.5-0.7,0.5-1.2
			C52.1,80,54.7,81.8,54.7,81.8z"/>
		<path class="st1" d="M76.6,75.5c-0.8-0.9-2.2-0.9-3-0.1c-0.3,0.3-0.5,0.7-0.6,1.1c-3.9,0.6-6.2-1.3-6.2-1.3
			c1.2,1.8,0.8,3.4,0.8,3.4c0.7-1.2,4.6-0.7,5.5-0.6c0.1,0.2,0.2,0.4,0.4,0.6c0.8,0.9,2.2,0.9,3,0.1C77.3,77.7,77.4,76.4,76.6,75.5z
			"/>
		<path class="st1" d="M69.3,86.4c-0.3-0.1-0.7,0-1,0.1c-2.2-2.4-2-4.8-2-4.8c-0.6,1.6-1.9,2.1-1.9,2.1c1.1-0.1,2.7,2.8,3,3.4
			c-0.1,0.2-0.2,0.3-0.2,0.5c-0.2,0.9,0.4,1.9,1.3,2.1c0.9,0.2,1.9-0.4,2.1-1.3C70.8,87.5,70.2,86.6,69.3,86.4z"/>
		<path class="st1" d="M60.5,84.5c-1.3,0.5-2.2,0-2.2,0c0.6,0.6-0.3,3-0.5,3.5c-0.1,0-0.3,0.1-0.4,0.1c-0.7,0.4-0.9,1.2-0.5,1.8
			c0.4,0.7,1.2,0.9,1.8,0.5c0.7-0.4,0.9-1.2,0.5-1.8c-0.1-0.2-0.3-0.4-0.6-0.5C58.9,85.6,60.5,84.5,60.5,84.5z"/>
		<path class="st1" d="M55.8,68.3c0.1-0.1,0.2-0.2,0.2-0.4c0.3-0.7-0.1-1.5-0.8-1.8s-1.5,0.1-1.8,0.8c-0.3,0.7,0.1,1.5,0.8,1.8
			c0.3,0.1,0.5,0.1,0.8,0.1c1.4,2.1,0.9,3.9,0.9,3.9c0.7-1.2,1.7-1.4,1.7-1.4C56.8,71.2,56,68.8,55.8,68.3z"/>
		<circle class="st1" cx="60.6" cy="77.6" r="7.3"/>
		<ellipse class="st2" cx="57.7" cy="74.8" rx="1" ry="1.3"/>
		<ellipse class="st2" cx="63.7" cy="76.7" rx="1" ry="1.3"/>
		<ellipse class="st2" cx="57.4" cy="81.5" rx="1.3" ry="1.2"/>
		<ellipse class="st2" cx="62.1" cy="72.7" rx="1.1" ry="0.8"/>
		<ellipse class="st2" cx="62.9" cy="81.8" rx="1.2" ry="1.3"/>
	</g>
</g>
</svg>
