<?xml version="1.0" encoding="utf-8"?>
<!-- Generator: Adobe Illustrator 23.0.1, SVG Export Plug-In . SVG Version: 6.00 Build 0)  -->
<svg version="1.1" id="Camada_1" xmlns="http://www.w3.org/2000/svg" xmlns:xlink="http://www.w3.org/1999/xlink" x="0px" y="0px"
	 viewBox="0 0 100 100" style="enable-background:new 0 0 100 100;" xml:space="preserve">
<style type="text/css">
	.st0{fill:#D1D3D4;}
	.st1{fill:#27AAE1;}
	.st2{fill:#FFFFFF;}
	.st3{fill:#BCBEC0;}
</style>
<g>
	<path class="st0" d="M50.3,98.2C24,98.2,2.6,76.8,2.6,50.5C2.6,24.2,24,2.7,50.3,2.7C76.6,2.7,98,24.2,98,50.5
		C98,76.8,76.6,98.2,50.3,98.2z M50.3,4.7C25.1,4.7,4.6,25.3,4.6,50.5s20.5,45.7,45.7,45.7S96,75.7,96,50.5S75.5,4.7,50.3,4.7z"/>
	<g>
		<path class="st1" d="M22.8,52.3L22.8,52.3l-0.1,0c-0.1,0.1-6.8,5.7-6.6,10.3c0,0,0.1,0.5,0.1,0.8c0.6,2.7,3.2,4.4,5.9,3.9
			c2-0.4,3.6-2,4-4C26.1,63.1,26.5,60.5,22.8,52.3z M19.7,65.8c0,0-1-0.1-2-1.7c-1-1.6,0-3.7,0-3.7c0.8-0.6,0.9,0.3,0.9,0.3
			S18,61.5,18.3,63c0.3,1.5,1.5,2,1.5,2C20.4,65.6,19.7,65.8,19.7,65.8z"/>
		<path class="st1" d="M29.5,59.7L29.5,59.7L29.5,59.7c-0.1,0-2.8,2.3-2.7,4.2c0,0,0,0.2,0.1,0.3c0.2,1.1,1.3,1.8,2.4,1.6
			c0.8-0.2,1.5-0.8,1.6-1.6C30.8,64.1,30.9,63,29.5,59.7z M28.2,65.2c0,0-0.4-0.1-0.8-0.7c-0.4-0.6,0-1.5,0-1.5
			c0.3-0.2,0.4,0.1,0.4,0.1s-0.2,0.3-0.1,0.9c0.1,0.6,0.6,0.8,0.6,0.8C28.5,65.1,28.2,65.2,28.2,65.2z"/>
		<path class="st1" d="M14.7,62.8L14.7,62.8L14.7,62.8c-0.1,0-4.1,3.4-4,6.1c0,0,0.1,0.3,0.1,0.4c0.3,1.6,1.9,2.6,3.5,2.3
			c1.2-0.3,2.1-1.2,2.3-2.4C16.7,69.3,16.9,67.7,14.7,62.8z M12.9,70.8c0,0-0.6-0.1-1.2-1c-0.6-0.9,0-2.2,0-2.2
			c0.5-0.3,0.5,0.2,0.5,0.2s-0.3,0.5-0.1,1.3c0.2,0.9,0.9,1.2,0.9,1.2C13.3,70.7,12.9,70.8,12.9,70.8z"/>
		<g>
			<path class="st2" d="M23,29.5l21.2-17.6c0,0,2.3-1.8,4.5,0.3c2.3,2,4.8,4.5,4.8,4.5l37.9,36.9c0,0,2.3,1.3,0.5,3.5
				c-1.8,2.3-20.7,20.8-20.7,20.8s-1.3,1.5-2.6,0.4s-46-44.1-46-44.1S20.3,31.8,23,29.5z"/>
			<path class="st3" d="M69.6,79.1c-0.5,0-0.9-0.2-1.2-0.5c-1.2-1.1-45.6-43.7-46-44.1c-0.1-0.1-1.1-1.1-1-2.6c0-1,0.5-1.8,1.5-2.6
				l0,0l21.2-17.6c0,0,2.6-1.9,5,0.3c2.3,2,4.8,4.5,4.8,4.6l37.9,36.8c0.2,0.1,1.1,0.7,1.3,1.7c0.2,0.7-0.1,1.5-0.7,2.3
				c-1.8,2.3-20,20.1-20.8,20.9C71.4,78.2,70.7,79,69.6,79.1C69.7,79.1,69.6,79.1,69.6,79.1z M23.3,29.8c-0.8,0.7-1.2,1.4-1.2,2.1
				c-0.1,1.1,0.8,2,0.8,2c0.4,0.4,44.8,43,46,44.1c0.3,0.2,0.5,0.3,0.8,0.3c0.6,0,1.2-0.7,1.2-0.7c0.2-0.2,19-18.6,20.7-20.8
				c0.5-0.6,0.7-1.2,0.6-1.7c-0.2-0.8-1-1.3-1-1.3l-0.1-0.1L53.3,16.9c0,0-2.5-2.5-4.8-4.5c-2-1.8-4-0.3-4.1-0.2L23.3,29.8z"/>
			<path class="st1" d="M17.1,38.8c0,0,1-10.7,5.5-8.8c4.5,1.9,7.9,4.6,15.8,1.4s24-6.1,24-6.1L91.9,54c0,0,1.5,1.2,0,3.1
				c-1.5,1.9-21,21.1-21,21.1s-1.1,1.2-2.3,0.1c-1.1-1.1-47-45.1-47-45.1s0.8,5.3,2,9.2c1.2,3.9-1.4,8.6-2.4,6
				c-1-2.7-0.7-6.8-0.9-7.8c-0.2-1-1.2-1.7-1,0.9S16.3,43,17.1,38.8z"/>
		</g>
	</g>
</g>
</svg>
