<?xml version="1.0" encoding="utf-8"?>
<!-- Generator: Adobe Illustrator 23.0.1, SVG Export Plug-In . SVG Version: 6.00 Build 0)  -->
<svg version="1.1" id="Camada_1" xmlns="http://www.w3.org/2000/svg" xmlns:xlink="http://www.w3.org/1999/xlink" x="0px" y="0px"
	 viewBox="0 0 100 100" style="enable-background:new 0 0 100 100;" xml:space="preserve">
<style type="text/css">
	.st0{fill:#1F96BF;}
	.st1{fill:#D1D3D4;}
</style>
<g>
	<path class="st0" d="M5,60.3c0,0,7.2-5,20.8,0.5s10.5,6.8,24.8,3.1s21.8-5.3,31.7-2.2S94,63.5,94,63.5s-5.9,27-40.3,33.7
		C19.5,95.4,9.1,74.7,5,60.3z"/>
	<g>
		<path class="st1" d="M50.1,98.2c-26.3,0-47.7-21.4-47.7-47.7c0-26.3,21.4-47.7,47.7-47.7s47.7,21.4,47.7,47.7
			C97.8,76.8,76.4,98.2,50.1,98.2z M50.1,4.7C24.9,4.7,4.3,25.3,4.3,50.5s20.5,45.7,45.7,45.7s45.7-20.5,45.7-45.7
			S75.3,4.7,50.1,4.7z"/>
	</g>
	<circle class="st0" cx="5.8" cy="55.6" r="1.1"/>
	<circle class="st0" cx="9.4" cy="56.8" r="1.1"/>
	<circle class="st0" cx="9" cy="47.9" r="1.1"/>
	<circle class="st0" cx="5.2" cy="43.2" r="1.1"/>
	<circle class="st0" cx="29.1" cy="40.4" r="2"/>
	<circle class="st0" cx="38.5" cy="31.2" r="2"/>
	<circle class="st0" cx="14.6" cy="51.8" r="0.6"/>
	<circle class="st0" cx="30.1" cy="33.4" r="0.6"/>
	<circle class="st0" cx="31.3" cy="20.5" r="0.6"/>
	<circle class="st0" cx="14.7" cy="47.5" r="0.6"/>
	<circle class="st0" cx="26.3" cy="53.4" r="0.6"/>
	<circle class="st0" cx="35.3" cy="39.9" r="0.6"/>
	<circle class="st0" cx="37" cy="49.2" r="0.6"/>
	<circle class="st0" cx="32.4" cy="26.2" r="0.6"/>
	<circle class="st0" cx="5.5" cy="50.9" r="0.6"/>
	<circle class="st0" cx="20.6" cy="53" r="1.1"/>
	<circle class="st0" cx="22" cy="41.1" r="1.1"/>
	<circle class="st0" cx="23.7" cy="30.8" r="1.1"/>
	<circle class="st0" cx="29" cy="47" r="1.1"/>
	<circle class="st0" cx="43.9" cy="56.4" r="1.1"/>
	<circle class="st0" cx="21.5" cy="46.7" r="2"/>
	<circle class="st0" cx="39.9" cy="44.9" r="2"/>
	<circle class="st0" cx="33.3" cy="54.8" r="2"/>
	<circle class="st0" cx="15.3" cy="39.8" r="0.7"/>
	<circle class="st0" cx="13.6" cy="32.8" r="0.7"/>
	<circle class="st0" cx="10.1" cy="40.6" r="0.7"/>
	<circle class="st0" cx="19.9" cy="35.5" r="0.7"/>
	<circle class="st0" cx="72.2" cy="48.1" r="1.1"/>
	<circle class="st0" cx="72.7" cy="53.5" r="1.1"/>
	<circle class="st0" cx="68.4" cy="43.4" r="1.1"/>
	<circle class="st0" cx="48.2" cy="60.8" r="1.1"/>
	<circle class="st0" cx="92.3" cy="40.6" r="2"/>
	<circle class="st0" cx="77.8" cy="52" r="0.6"/>
	<circle class="st0" cx="75.6" cy="58.8" r="0.6"/>
	<circle class="st0" cx="49.6" cy="54.6" r="0.6"/>
	<circle class="st0" cx="47.8" cy="47.5" r="0.6"/>
	<circle class="st0" cx="39.4" cy="38.2" r="0.6"/>
	<circle class="st0" cx="93.7" cy="52.6" r="0.6"/>
	<circle class="st0" cx="90.7" cy="60.9" r="0.6"/>
	<circle class="st0" cx="84.6" cy="58.7" r="0.6"/>
	<circle class="st0" cx="66" cy="51.2" r="0.6"/>
	<circle class="st0" cx="53.7" cy="30" r="0.6"/>
	<circle class="st0" cx="53.5" cy="21.5" r="0.6"/>
	<circle class="st0" cx="50.7" cy="14.4" r="0.6"/>
	<circle class="st0" cx="47.3" cy="20" r="0.6"/>
	<circle class="st0" cx="61.2" cy="27.8" r="0.6"/>
	<circle class="st0" cx="42.8" cy="16.1" r="0.6"/>
	<circle class="st0" cx="67.2" cy="12.8" r="0.6"/>
	<circle class="st0" cx="62.4" cy="39.1" r="0.6"/>
	<circle class="st0" cx="61.7" cy="54.3" r="0.6"/>
	<circle class="st0" cx="56.3" cy="54.9" r="0.6"/>
	<circle class="st0" cx="57.8" cy="44" r="0.6"/>
	<circle class="st0" cx="55" cy="34.8" r="0.6"/>
	<circle class="st0" cx="46" cy="25.5" r="0.6"/>
	<circle class="st0" cx="45.3" cy="33.5" r="0.6"/>
	<circle class="st0" cx="40.1" cy="23.3" r="0.6"/>
	<circle class="st0" cx="58.5" cy="58.5" r="0.6"/>
	<circle class="st0" cx="52.9" cy="59.2" r="0.6"/>
	<circle class="st0" cx="83.8" cy="53.2" r="1.1"/>
	<circle class="st0" cx="83.9" cy="47.5" r="1.1"/>
	<circle class="st0" cx="49.3" cy="40.3" r="1.1"/>
	<circle class="st0" cx="68.2" cy="55.3" r="1.1"/>
	<circle class="st0" cx="85.1" cy="41.3" r="1.1"/>
	<circle class="st0" cx="92.2" cy="47.1" r="1.1"/>
	<circle class="st0" cx="58.4" cy="50.1" r="2"/>
	<circle class="st0" cx="71.7" cy="37.2" r="2"/>
	<circle class="st0" cx="59.9" cy="19.7" r="2"/>
	<circle class="st0" cx="89.3" cy="55.2" r="2"/>
	<circle class="st0" cx="78.4" cy="40" r="0.7"/>
	<circle class="st0" cx="88.4" cy="31.9" r="0.7"/>
	<circle class="st0" cx="78.7" cy="20" r="0.7"/>
	<circle class="st0" cx="77.5" cy="31.3" r="0.7"/>
	<circle class="st0" cx="78.7" cy="46" r="0.7"/>
	<circle class="st0" cx="62.3" cy="33.4" r="0.7"/>
	<circle class="st0" cx="68.4" cy="30.2" r="0.7"/>
	<circle class="st0" cx="73" cy="22.6" r="0.7"/>
	<circle class="st0" cx="82.7" cy="32.2" r="0.7"/>
	<circle class="st0" cx="84.2" cy="25.4" r="0.7"/>
	<circle class="st0" cx="79.5" cy="25.4" r="0.7"/>
	<circle class="st0" cx="39.9" cy="60.8" r="0.7"/>
	<path class="st1" d="M81.7,17.4L14.7,79.9c-0.3,0.2,1.6,2.3,1.9,2.1L84,19.6c0,0,0.3,0-0.8-1S81.7,17.4,81.7,17.4z"/>
</g>
</svg>
