<?xml version="1.0" encoding="utf-8"?>
<!-- Generator: Adobe Illustrator 23.0.1, SVG Export Plug-In . SVG Version: 6.00 Build 0)  -->
<svg version="1.1" id="Camada_1" xmlns="http://www.w3.org/2000/svg" xmlns:xlink="http://www.w3.org/1999/xlink" x="0px" y="0px"
	 viewBox="0 0 100 100" style="enable-background:new 0 0 100 100;" xml:space="preserve">
<style type="text/css">
	.st0{fill:#1F96BF;}
	.st1{fill:#D1D3D4;}
</style>
<g>
	<path class="st0" d="M29.7,74.1c-8-5.8,3.1-11.4,3.1-11.4c5.6,7.5,12.7,9.6,18,10V3.4C25.2,3.4,4.4,24.2,4.4,49.9
		c0,25.7,20.8,46.5,46.5,46.5V81.7C43.7,80.8,35.5,78.2,29.7,74.1z M39.8,25.3c3.4,0,6.1,2.7,6.1,6.1s-2.7,6.1-6.1,6.1
		s-6.1-2.7-6.1-6.1S36.4,25.3,39.8,25.3z"/>
	<g>
		<path class="st0" d="M68.6,68.5v-5.4c-3.1-0.1-6.3-1-8.1-2.3l1.3-3.6c1.9,1.3,4.7,2.3,7.7,2.3c3.8,0,6.3-2.2,6.3-5.2
			c0-2.9-2.1-4.7-6-6.3c-5.4-2.1-8.8-4.6-8.8-9.2c0-4.4,3.1-7.8,8-8.6v-5.4h3.3V30c3.2,0.1,5.4,1,6.9,1.9l-1.3,3.5
			c-1.1-0.6-3.3-1.8-6.7-1.8c-4.1,0-5.6,2.4-5.6,4.6c0,2.8,2,4.1,6.6,6.1c5.5,2.2,8.2,5,8.2,9.7c0,4.2-2.9,8.1-8.4,9v5.5H68.6z"/>
	</g>
	<g>
		<g>
			<path class="st1" d="M50.1,98.1c-26.3,0-47.7-21.4-47.7-47.7c0-26.3,21.4-47.7,47.7-47.7s47.7,21.4,47.7,47.7
				C97.8,76.7,76.4,98.1,50.1,98.1z M50.1,4.7C24.9,4.7,4.4,25.2,4.4,50.4s20.5,45.7,45.7,45.7s45.7-20.5,45.7-45.7
				S75.3,4.7,50.1,4.7z"/>
		</g>
	</g>
</g>
</svg>
