<?xml version="1.0" encoding="utf-8"?>
<!-- Generator: Adobe Illustrator 23.0.1, SVG Export Plug-In . SVG Version: 6.00 Build 0)  -->
<svg version="1.1" id="bold" xmlns="http://www.w3.org/2000/svg" xmlns:xlink="http://www.w3.org/1999/xlink" x="0px" y="0px"
	 viewBox="0 0 512 512" style="enable-background:new 0 0 512 512;" xml:space="preserve">
<g>
	<path d="M18.3,31.3h51.1c0,0,11.2,2.8,21,28s70.7,211.3,70.7,211.3s4.9,11.9,0,22.4c-4.9,10.5-12.6,74.9,33.6,74.9s245.6,0,245.6,0
		s14.7-5.6,0-22.4H200.9c0,0-33.6-9.1-18.2-50.4c0,0,13.3-7.7,0.7-30.1l253.3-23.8c0,0,14,3.5,25.9-41.6s21.7-93.4,21.7-93.4H131.7
		l-24.5-72.1c0,0-14-22.4-38.5-23.1c-24.5-0.7-50.4,0-50.4,0S3.6,22.9,18.3,31.3z"/>
	<circle cx="171" cy="452.7" r="53.7"/>
	<circle cx="396.9" cy="452.7" r="53.7"/>
</g>
</svg>
